<svg id="visual" viewBox="0 0 900 600" width="900" height="600" xmlns="http://www.w3.org/2000/svg" xmlns:xlink="http://www.w3.org/1999/xlink" version="1.1"><rect x="0" y="0" width="900" height="600" fill="#e5dccd"></rect><path d="M0 197L21.5 236.8C43 276.7 86 356.3 128.8 381.2C171.7 406 214.3 376 257.2 338.7C300 301.3 343 256.7 385.8 261.2C428.7 265.7 471.3 319.3 514.2 317.8C557 316.3 600 259.7 642.8 255.8C685.7 252 728.3 301 771.2 320.2C814 339.3 857 328.7 878.5 323.3L900 318L900 601L878.5 601C857 601 814 601 771.2 601C728.3 601 685.7 601 642.8 601C600 601 557 601 514.2 601C471.3 601 428.7 601 385.8 601C343 601 300 601 257.2 601C214.3 601 171.7 601 128.8 601C86 601 43 601 21.5 601L0 601Z" fill="#7997ff" stroke-linecap="round" stroke-linejoin="miter"></path></svg>