<!DOCTYPE svg PUBLIC "-//W3C//DTD SVG 1.1//EN" "http://www.w3.org/Graphics/SVG/1.1/DTD/svg11.dtd">
<!-- Uploaded to: SVG Repo, www.svgrepo.com, Transformed by: SVG Repo Mixer Tools -->
<svg fill="#cc6535" height="800px" width="800px" version="1.1" id="Layer_1" xmlns="http://www.w3.org/2000/svg" xmlns:xlink="http://www.w3.org/1999/xlink" viewBox="0 0 512 512" xml:space="preserve">
<g id="SVGRepo_bgCarrier" stroke-width="0"/>
<g id="SVGRepo_tracerCarrier" stroke-linecap="round" stroke-linejoin="round"/>
<g id="SVGRepo_iconCarrier"> <g> <g> <path d="M510.158,313.292L363.749,100.604c-1.815-3.09-5.164-5.169-9.006-5.169c-3.649,0-6.859,1.874-8.727,4.709l-77.663,99.009 l-35.436-35.436c-4.081-4.079-10.696-4.079-14.778,0l-49.974,49.974c-17.641-16.049-39.728-25.611-63.675-25.611 C46.873,188.081,0,243.392,0,311.379c0,63.826,41.312,116.478,94.041,122.682v57.041H80.457c-5.77,0-10.449,4.678-10.449,10.449 S74.687,512,80.457,512h342.815c5.77,0,10.449-4.678,10.449-10.449s-4.679-10.449-10.449-10.449H114.939v-57.041 c25.251-2.972,47.879-16.598,64.61-36.999h322.002c5.77,0,10.449-4.679,10.449-10.449v-67.397 C512,317.1,511.357,315.035,510.158,313.292z M344.294,136.2v62.329c0,1.763,0.446,3.497,1.297,5.042l21.866,39.698 l-14.127,40.859l-70.091-70.092L344.294,136.2z M114.939,412.979v-44.68l30.027-30.028c4.08-4.081,4.08-10.697,0-14.777 c-4.081-4.08-10.696-4.079-14.778,0l-15.249,15.251v-33.287c0-5.771-4.679-10.449-10.449-10.449s-10.449,4.678-10.449,10.449 v33.287l-3.387-3.388c-4.08-4.079-10.695-4.079-14.778,0c-4.08,4.08-4.08,10.696,0,14.778L94.041,368.3v44.68 c-41.179-6.319-73.143-49.472-73.143-101.601c0-56.464,37.499-102.4,83.592-102.4s83.592,45.936,83.592,102.4 C188.082,363.508,156.118,406.662,114.939,412.979z M193.353,376.164c9.9-18.837,15.626-41.036,15.626-64.786 c0-31.571-10.113-60.403-26.709-82.238l32.814-32.814v32.646c0,2.719,1.061,5.331,2.954,7.281l40.684,41.877l-35.882,49.423 c-1.866,2.57-2.462,5.851-1.619,8.913l10.933,39.698H193.353z M253.831,376.164L253.831,376.164l-11.125-40.401l38.094-52.468 c2.985-4.112,2.581-9.774-0.96-13.42l-43.855-45.143v-28.394L415.81,376.164H253.831z M491.102,376.164h-45.737l-75.604-75.604 l18.964-54.851c0.967-2.794,0.703-5.866-0.723-8.456l-22.81-41.41v-56.288l125.91,182.909V376.164z"/> </g> </g> <g> <g> <path d="M181.871,37.486C170.113,14.791,146.234,0,120.268,0S70.426,14.789,58.669,37.486 C26.188,38.291,0.015,64.955,0.015,97.615c0,5.77,4.678,10.449,10.449,10.449h219.61c5.771,0,10.449-4.679,10.449-10.449 C240.523,64.955,214.351,38.292,181.871,37.486z M22.324,87.166c4.589-16.587,19.824-28.802,37.86-28.802 c1.318,0,2.686,0.071,4.071,0.21c4.691,0.464,9.122-2.255,10.807-6.659c7.104-18.552,25.27-31.018,45.205-31.018 s38.104,12.466,45.21,31.019c1.686,4.404,6.105,7.13,10.808,6.659c1.382-0.139,2.751-0.21,4.068-0.21 c18.036,0,33.271,12.214,37.859,28.801H22.324z"/> </g> </g> <g> <g> <path d="M44.931,491.102H10.449C4.678,491.102,0,495.78,0,501.551S4.678,512,10.449,512h34.482c5.77,0,10.449-4.678,10.449-10.449 S50.701,491.102,44.931,491.102z"/> </g> </g> <g> <g> <path d="M501.551,491.102h-42.752c-5.77,0-10.449,4.678-10.449,10.449S453.029,512,458.799,512h42.752 c5.77,0,10.449-4.678,10.449-10.449S507.321,491.102,501.551,491.102z"/> </g> </g> <g> <g> <path d="M68.056,357.616c-10.155-12.293-15.748-28.714-15.748-46.238c0-8.988,1.465-17.689,4.357-25.858 c1.925-5.441-0.926-11.411-6.366-13.337c-5.443-1.925-11.411,0.925-13.337,6.366c-3.684,10.416-5.554,21.461-5.554,32.83 c0,22.37,7.293,43.518,20.536,59.548c2.067,2.5,5.052,3.794,8.061,3.794c2.343,0,4.701-0.784,6.649-2.394 C71.105,368.65,71.731,362.065,68.056,357.616z"/> </g> </g> <g> <g> <path d="M89.094,237.508c-2.647-5.128-8.949-7.143-14.076-4.503c-5.807,2.992-11.269,6.871-16.236,11.533 c-4.208,3.949-4.419,10.561-0.469,14.77c2.057,2.192,4.836,3.299,7.622,3.299c2.563,0,5.131-0.937,7.148-2.83 c3.552-3.332,7.424-6.09,11.507-8.194C89.72,248.941,91.737,242.638,89.094,237.508z"/> </g> </g> </g>
</svg>